<svg height="36" viewBox="0 0 36 36" width="36" xmlns="http://www.w3.org/2000/svg"><path d="m17.903 1.699c-8.949 0-16.204 7.254-16.204 16.203s7.254 16.203 16.204 16.203c8.948 0 16.203-7.254 16.203-16.203s-7.254-16.203-16.203-16.203zm6.305 13.074c.008.143.013.285.013.435 0 4.448-3.387 9.58-9.582 9.58-1.907 0-3.674-.549-5.165-1.511.265.034.529.046.805.046 1.575 0 3.029-.539 4.175-1.436-1.472-.032-2.709-1.012-3.145-2.346.204.045.421.058.637.058.31 0 .609-.036.884-.112-1.53-.313-2.697-1.671-2.697-3.308v-.037c.449.248.98.405 1.521.416-.895-.599-1.496-1.632-1.496-2.799 0-.621.171-1.197.46-1.701 1.664 2.044 4.14 3.385 6.939 3.522-.055-.244-.078-.501-.078-.768 0-1.855 1.501-3.368 3.364-3.368.961 0 1.842.408 2.461 1.065.765-.153 1.484-.428 2.135-.815-.251.789-.784 1.444-1.482 1.861.678-.087 1.328-.263 1.939-.532-.459.682-1.019 1.274-1.688 1.749z"/></svg>