<svg height="36" viewBox="0 0 36 36" width="36" xmlns="http://www.w3.org/2000/svg"><path d="m16.513 23.816c-.204.282-.396.42-.572.42-.123 0-.191-.059-.209-.213-.008-.026-.008-.139-.008-.351v-3.682h-.917v3.958c0 .348.037.592.085.743.092.248.297.366.583.366.336 0 .682-.197 1.038-.607v.546h.904v-5.007h-.904v3.826z"/><path d="m20.054 19.925c-.337 0-.645.191-.942.549v-2.199h-.899v6.72h.899v-.491c.307.381.619.552.942.552.356 0 .596-.176.719-.555.064-.214.09-.541.09-1.01v-1.993c0-.472-.026-.807-.09-1.004-.123-.378-.363-.571-.719-.571zm.066 3.556c0 .455-.132.672-.399.672-.143 0-.297-.059-.45-.217v-3.054c.152-.147.307-.219.45-.219.267 0 .399.238.399.675v2.142z"/><path d="m11.52 19.222h1.067v5.774h1.007v-5.774h1.086v-.946h-3.16z"/><path d="m17.697 14.846c.296 0 .435-.236.435-.697v-2.131c0-.462-.138-.699-.435-.699-.303 0-.435.237-.435.699v2.131c0 .461.133.697.435.697z"/><path d="m22.936 19.925c-.462 0-.819.171-1.091.518-.186.25-.268.646-.268 1.182v1.748c0 .538.093.923.282 1.186.267.328.621.498 1.103.498.475 0 .838-.171 1.098-.533.109-.169.172-.346.208-.551.009-.09.022-.284.022-.579v-.134h-.934c0 .366-.012.561-.015.616-.049.241-.185.359-.408.359-.31 0-.462-.227-.462-.69v-.882h1.818v-1.038c0-.536-.092-.932-.291-1.182-.242-.347-.608-.518-1.065-.518zm.567 1.895h-.904v-.465c0-.453.152-.692.452-.692.304 0 .452.238.452.692z"/><path d="m17.903 1.699c-8.949 0-16.204 7.254-16.204 16.204 0 8.948 7.254 16.203 16.204 16.203 8.948 0 16.203-7.254 16.203-16.203s-7.254-16.204-16.203-16.204zm1.899 8.85h.917v3.721c0 .213 0 .325.008.361.021.145.095.215.217.215.186 0 .369-.145.575-.421v-3.876h.921v5.057h-.922v-.548c-.357.419-.704.618-1.042.618-.293 0-.5-.113-.595-.372-.045-.153-.079-.393-.079-.758zm-3.461 1.659c0-.544.092-.949.285-1.196.25-.345.615-.523 1.071-.523.452 0 .813.178 1.072.523.186.247.279.652.279 1.196v1.769c0 .533-.092.934-.279 1.183-.259.352-.62.516-1.072.516-.456 0-.82-.165-1.071-.516-.194-.249-.285-.65-.285-1.183zm-2.446-3.386.716 2.671.697-2.671h1.021l-1.223 4.037v2.748h-1.007v-2.748c-.095-.488-.297-1.194-.625-2.147-.217-.63-.438-1.26-.651-1.889h1.072zm11.253 16.475c-.188.796-.841 1.385-1.618 1.48-1.866.206-3.759.206-5.626.206-1.876 0-3.765 0-5.62-.206-.783-.094-1.433-.683-1.623-1.48-.257-1.137-.257-2.377-.257-3.549s.005-2.411.259-3.541c.188-.797.839-1.394 1.623-1.48 1.855-.205 3.748-.205 5.622-.205 1.866 0 3.756 0 5.624.205.778.087 1.431.683 1.621 1.48.251 1.13.249 2.369.249 3.541.001 1.173-.001 2.413-.254 3.549z"/></svg>