<?xml version="1.0" encoding="utf-8"?>
<!-- Generator: Adobe Illustrator 16.0.0, SVG Export Plug-In . SVG Version: 6.00 Build 0)  -->
<!DOCTYPE svg PUBLIC "-//W3C//DTD SVG 1.1//EN" "http://www.w3.org/Graphics/SVG/1.1/DTD/svg11.dtd">
<svg version="1.1" id="Layer_1" xmlns="http://www.w3.org/2000/svg" xmlns:xlink="http://www.w3.org/1999/xlink" x="0px" y="0px"
	 width="377.465px" height="376.057px" viewBox="0 0 377.465 376.057" enable-background="new 0 0 377.465 376.057"
	 xml:space="preserve">
<rect fill="#716678" width="377.465" height="376.057"/>
<g>
	<path fill="#CCB7AD" d="M215.817,287.897c0,9.374-4.537,16.972-10.13,16.972h-26.116c-5.595,0-10.131-7.598-10.131-16.972V116.671
		c0-9.374,4.536-16.972,10.131-16.972h26.116c5.593,0,10.13,7.598,10.13,16.972V287.897z"/>
	<path fill="#CCB7AD" d="M291.622,164.671c6.271,6.271,7.422,15.289,2.569,20.141l-16.456,16.458
		c-4.855,4.852-13.871,3.701-20.145-2.57l-87.91-87.911c-6.272-6.271-7.421-15.29-2.569-20.141l16.457-16.458
		c4.854-4.852,13.87-3.701,20.143,2.57L291.622,164.671z"/>
	<path fill="#CCB7AD" d="M127.39,198.701c-6.271,6.271-15.29,7.422-20.142,2.57L90.79,184.814
		c-4.852-4.856-3.702-13.872,2.57-20.145l87.911-87.91c6.271-6.272,15.29-7.423,20.144-2.569l16.457,16.456
		c4.852,4.854,3.702,13.87-2.569,20.143L127.39,198.701z"/>
</g>
</svg>
